<svg xmlns="http://www.w3.org/2000/svg" viewBox="0 0 220 330" width="220" height="330">
  <rect width="220" height="330" fill="#8C3B2E"/>
  <path d="M32 173V87C32 27 99 27 99 87V173Z" fill="#E8D6B8"/>
  <path d="M121 173V87C121 27 188 27 188 87V173Z" fill="#E8D6B8"/>
  <circle cx="155" cy="82" r="20" fill="#B8651B"/>
  <path d="M32 143L65 117L99 143V173H32ZM121 151L157 125L188 145V173H121Z" fill="#B8651B"/>
  <rect x="0" y="173" width="220" height="59" fill="#B8651B"/>
  <path d="M32 173H99L67 232H0ZM121 173H188L220 232H153Z" fill="#E8D6B8"/>
  <path d="M99 77L111 67L123 77V96H99Z" fill="#221E1B"/>
  <path d="M95 104H126L140 148L137 183H82L85 148Z" fill="#221E1B"/>
  <path d="M96 116L78 130L85 144L111 130L133 144L142 130L123 116Z" fill="#221E1B"/>
  <path d="M94 179H108V208H88ZM115 179H129L135 208H115Z" fill="#221E1B"/>
  <rect x="0" y="232" width="220" height="98" fill="#8C3B2E"/>
</svg>
