<svg xmlns="http://www.w3.org/2000/svg" viewBox="0 0 220 330" width="220" height="330">
  <rect width="220" height="330" fill="#E8D6B8"/>
  <circle cx="174" cy="43" r="23" fill="#F4ECDF"/>
  <path d="M0 150 L53 55 L111 145 L160 77 L220 149 L220 232 L0 232 Z" fill="#4E7D5B"/>
  <path d="M29 97 L53 55 L80 98 L55 87 Z" fill="#F4ECDF"/>
  <path d="M140 105 L160 77 L184 105 L161 96 Z" fill="#F4ECDF"/>
  <path d="M0 204 L61 167 L103 178 L153 145 L220 166 L220 232 L0 232 Z" fill="#2B2A28"/>
  <path d="M0 210 L44 192 L76 196 L49 209 L0 228 Z" fill="#4E7D5B"/>
  <path d="M90 130 Q112 116 136 128 L145 146 L129 158 L101 151 Z" fill="#F4ECDF"/>
  <path d="M128 132 L130 108 L143 94 L155 102 L151 122 L140 144 Z" fill="#F4ECDF"/>
  <path d="M145 104 L163 110 L158 122 L144 118 Z" fill="#F4ECDF"/>
  <path d="M132 105 Q113 86 126 73 L137 77 Q128 88 143 99 Z" fill="#F4ECDF"/>
  <path d="M97 141 L110 144 L108 174 L96 179 Z" fill="#F4ECDF"/>
  <path d="M124 145 L137 145 L144 165 L132 170 Z" fill="#F4ECDF"/>
  <path d="M97 132 L83 116 L75 126 L88 144 Z" fill="#F4ECDF"/>
  <rect x="0" y="232" width="220" height="98" fill="#2B2A28"/>
</svg>
