<svg xmlns="http://www.w3.org/2000/svg" viewBox="0 0 220 330" width="220" height="330">
  <rect width="220" height="330" fill="#E8D6B8"/>
  <rect x="20" y="20" width="94" height="130" fill="#1F4F57"/>
  <rect x="32" y="32" width="70" height="106" fill="#6E9A7C"/>
  <path d="M32 97L61 75L83 94L102 81V138H32Z" fill="#1F4F57"/>
  <path d="M46 32H61L32 78V54Z" fill="#F4ECDF"/>
  <path d="M84 32H99L62 91H47Z" fill="#F4ECDF"/>
  <rect x="61" y="32" width="12" height="106" fill="#E8D6B8"/>
  <rect x="32" y="82" width="70" height="12" fill="#E8D6B8"/>
  <path d="M0 178H220V232H0Z" fill="#6E9A7C"/>
  <path d="M32 150H114L156 232H71Z" fill="#F4ECDF"/>
  <path d="M85 169H174L191 188H68Z" fill="#1F4F57"/>
  <rect x="81" y="188" width="14" height="44" fill="#1F4F57"/>
  <rect x="164" y="188" width="14" height="44" fill="#1F4F57"/>
  <rect x="95" y="188" width="69" height="16" fill="#1F4F57"/>
  <rect x="0" y="232" width="220" height="98" fill="#1F4F57"/>
</svg>
